<svg version="1.1" xmlns="http://www.w3.org/2000/svg" viewBox="0 0 1427.7421515201372 730" width="4283.226454560412" height="2190">
  <!-- svg-source:excalidraw -->
  
  <defs>
    <style class="style-fonts">
      @font-face {
        font-family: "Virgil";
        src: url("https://excalidraw.com/Virgil.woff2");
      }
      @font-face {
        font-family: "Cascadia";
        src: url("https://excalidraw.com/Cascadia.woff2");
      }
    </style>
  </defs>
  <rect x="0" y="0" width="1427.7421515201372" height="730" fill="#ffffff"></rect><g stroke-linecap="round" transform="translate(680 56.57512374207215) rotate(0 125.5 83.5)"><path d="M32 0 M32 0 C81.82 1.67, 133.91 1.26, 219 0 M32 0 C77.16 -1.78, 122.42 -1.38, 219 0 M219 0 C240.03 -0.29, 250.92 12.43, 251 32 M219 0 C242.07 0.48, 251.98 10.83, 251 32 M251 32 C250.03 65, 249.01 92.91, 251 135 M251 32 C249.9 59.09, 250.63 83.48, 251 135 M251 135 C251.57 158.05, 241.75 167.95, 219 167 M251 135 C251.84 155.29, 240.95 166.72, 219 167 M219 167 C167.77 167.1, 113.48 168.72, 32 167 M219 167 C168.1 168.32, 115.46 168.42, 32 167 M32 167 C10.1 167.2, 0.82 156.55, 0 135 M32 167 C10.17 168.44, 1.93 157.18, 0 135 M0 135 C-0.8 109.63, 0.89 84.94, 0 32 M0 135 C1.49 97.76, 0.82 58.9, 0 32 M0 32 C0.01 9.43, 9.53 -1.32, 32 0 M0 32 C-0.91 11.91, 9.9 2.17, 32 0" stroke="#000000" stroke-width="1" fill="none"></path></g><g transform="translate(715 64.57512374207215) rotate(0 64.5 76)"><text x="0" y="27" font-family="Virgil, HanziPen SC, Zhushiti, KaiTi, Segoe UI Emoji" font-size="30px" fill="#000000" text-anchor="start" style="white-space: pre;" direction="ltr">云存储：</text><text x="0" y="65" font-family="Virgil, HanziPen SC, Zhushiti, KaiTi, Segoe UI Emoji" font-size="30px" fill="#000000" text-anchor="start" style="white-space: pre;" direction="ltr">对象存储</text><text x="0" y="103" font-family="Virgil, HanziPen SC, Zhushiti, KaiTi, Segoe UI Emoji" font-size="30px" fill="#000000" text-anchor="start" style="white-space: pre;" direction="ltr">CouchDB</text><text x="0" y="141" font-family="Virgil, HanziPen SC, Zhushiti, KaiTi, Segoe UI Emoji" font-size="30px" fill="#000000" text-anchor="start" style="white-space: pre;" direction="ltr">WebDAV</text></g><g stroke-linecap="round" transform="translate(100 57.57512374207215) rotate(0 128 73)"><path d="M32 0 M32 0 C101.88 0.8, 177.17 -1.03, 224 0 M32 0 C78.99 0.05, 124.25 -0.11, 224 0 M224 0 C245.76 0.24, 256.21 9.78, 256 32 M224 0 C244.72 -0.99, 254.06 10.24, 256 32 M256 32 C254.58 61.04, 255.69 90.75, 256 114 M256 32 C255.25 49.62, 254.79 66.24, 256 114 M256 114 C257.18 134.37, 243.94 145.72, 224 146 M256 114 C257.68 136.43, 246.38 147.98, 224 146 M224 146 C181.54 144.11, 137.1 146.4, 32 146 M224 146 C149.37 145.08, 72.65 144.48, 32 146 M32 146 C11.41 147.98, 1.89 135.14, 0 114 M32 146 C10.09 147.62, 0.57 135, 0 114 M0 114 C1.36 94.64, 1.53 76.46, 0 32 M0 114 C-0.44 89.97, 0.07 64.49, 0 32 M0 32 C-0.05 11.24, 9.48 1.92, 32 0 M0 32 C-0.16 12.38, 11.19 -1.74, 32 0" stroke="#000000" stroke-width="1" fill="none"></path></g><g stroke-linecap="round"><g transform="translate(656 107.1682198185282) rotate(0 -138.62698305631056 -2.7276733447775428)"><path d="M-0.44 -0.13 C-46.92 -0.59, -232.34 -3.09, -278.78 -3.78 M1.53 -1.24 C-44.57 -1.92, -230.09 -4.49, -276.48 -5.33" stroke="#000000" stroke-width="1" fill="none"></path></g><g transform="translate(656 107.1682198185282) rotate(0 -138.62698305631056 -2.7276733447775428)"><path d="M-248.34 -16.45 C-255.04 -14.1, -264.52 -11.23, -275.1 -3.71 M-248.86 -14.49 C-255.42 -13.38, -262.3 -10.01, -277.17 -4.36" stroke="#000000" stroke-width="1" fill="none"></path></g><g transform="translate(656 107.1682198185282) rotate(0 -138.62698305631056 -2.7276733447775428)"><path d="M-248.66 4.07 C-255.09 0.15, -264.48 -3.24, -275.1 -3.71 M-249.19 6.03 C-255.58 1.72, -262.37 -0.32, -277.17 -4.36" stroke="#000000" stroke-width="1" fill="none"></path></g></g><mask></mask><g stroke-linecap="round"><g transform="translate(370.39856281460334 145.01139186734724) rotate(0 147.90669683749292 4.553486004276891)"><path d="M-0.92 0.49 C48.17 1.87, 245.08 6.85, 294.56 8.43 M0.8 -0.29 C50.24 1.18, 247.63 8.04, 296.73 9.4" stroke="#000000" stroke-width="1" fill="none"></path></g><g transform="translate(370.39856281460334 145.01139186734724) rotate(0 147.90669683749292 4.553486004276891)"><path d="M269.05 17.03 C275.14 16.74, 286.39 13.94, 294.82 7.87 M267.4 18.21 C274.9 16.34, 282.64 13.26, 296.36 9.87" stroke="#000000" stroke-width="1" fill="none"></path></g><g transform="translate(370.39856281460334 145.01139186734724) rotate(0 147.90669683749292 4.553486004276891)"><path d="M269.7 -3.48 C275.61 2.49, 286.67 5.96, 294.82 7.87 M268.05 -2.3 C275.34 1.34, 282.9 3.77, 296.36 9.87" stroke="#000000" stroke-width="1" fill="none"></path></g></g><mask></mask><g stroke-linecap="round" transform="translate(10 468.57512374207215) rotate(0 248.4999999999999 107.5)"><path d="M32 0 M32 0 C156.44 0.99, 280.82 2.04, 465 0 M32 0 C128.4 -1.33, 224.45 -1.98, 465 0 M465 0 C484.73 1.88, 498.66 10.48, 497 32 M465 0 C487.17 -0.9, 494.74 8.79, 497 32 M497 32 C494.6 73.99, 497.52 115.82, 497 183 M497 32 C496.96 68.01, 497.5 103.24, 497 183 M497 183 C498.86 204.36, 487.65 215.46, 465 215 M497 183 C494.82 206.1, 484.35 216.95, 465 215 M465 215 C327.03 215.87, 190.67 215.76, 32 215 M465 215 C303.68 214.52, 142.48 214.22, 32 215 M32 215 C9.09 213.89, -0.62 203.46, 0 183 M32 215 C11.04 215.75, -0.92 202.92, 0 183 M0 183 C2.88 128.35, -1.05 73.26, 0 32 M0 183 C-0.09 144.61, -0.07 106.32, 0 32 M0 32 C-0.65 10.2, 9.24 0.97, 32 0 M0 32 C-1.17 9.92, 11.52 1.82, 32 0" stroke="#000000" stroke-width="1" fill="none"></path></g><g transform="translate(14.596000000000004 501.57512374207215) rotate(0 229 82.5)"><text x="229" y="23" font-family="Virgil, HanziPen SC, Zhushiti, KaiTi, Segoe UI Emoji" font-size="25.439999999999994px" fill="#000000" text-anchor="middle" style="white-space: pre;" direction="ltr">笔记软件:</text><text x="229" y="56" font-family="Virgil, HanziPen SC, Zhushiti, KaiTi, Segoe UI Emoji" font-size="25.439999999999994px" fill="#000000" text-anchor="middle" style="white-space: pre;" direction="ltr">Obsidian</text><text x="229" y="89" font-family="Virgil, HanziPen SC, Zhushiti, KaiTi, Segoe UI Emoji" font-size="25.439999999999994px" fill="#000000" text-anchor="middle" style="white-space: pre;" direction="ltr">Logseq</text><text x="229" y="122" font-family="Virgil, HanziPen SC, Zhushiti, KaiTi, Segoe UI Emoji" font-size="25.439999999999994px" fill="#000000" text-anchor="middle" style="white-space: pre;" direction="ltr">VSCode</text><text x="229" y="155" font-family="Virgil, HanziPen SC, Zhushiti, KaiTi, Segoe UI Emoji" font-size="25.439999999999994px" fill="#000000" text-anchor="middle" style="white-space: pre;" direction="ltr">其他使用纯文本格式本地存储的笔记软件</text></g><g stroke-linecap="round"><g transform="translate(212.62637959276958 450.5795290284158) rotate(0 -0.11701326616594088 -118.78447968396065)"><path d="M0.55 -0.99 C0.43 -40.67, 0.46 -199.38, 0.17 -238.67 M-0.63 1.1 C-0.92 -38.41, -0.76 -197.77, -0.44 -237.73" stroke="#000000" stroke-width="1" fill="none"></path></g><g transform="translate(212.62637959276958 450.5795290284158) rotate(0 -0.11701326616594088 -118.78447968396065)"><path d="M8.06 -208.42 C4.2 -221.11, 3.63 -231.52, -2.13 -239.64 M9.97 -210.39 C5.61 -220.13, 1.51 -230.09, 0.03 -236.82" stroke="#000000" stroke-width="1" fill="none"></path></g><g transform="translate(212.62637959276958 450.5795290284158) rotate(0 -0.11701326616594088 -118.78447968396065)"><path d="M-12.46 -208.5 C-8.71 -221.25, -1.66 -231.63, -2.13 -239.64 M-10.55 -210.47 C-7.13 -220.02, -3.44 -229.96, 0.03 -236.82" stroke="#000000" stroke-width="1" fill="none"></path></g></g><mask></mask><g stroke-linecap="round"><g transform="translate(249.35501949778052 219.67644532797522) rotate(0 3.500876838792749 114.26743650299849)"><path d="M0.94 0.09 C1.98 38.49, 5.96 191.36, 7.03 229.45 M-0.03 -0.91 C0.73 37.22, 4.69 189.12, 5.79 227.56" stroke="#000000" stroke-width="1" fill="none"></path></g><g transform="translate(249.35501949778052 219.67644532797522) rotate(0 3.500876838792749 114.26743650299849)"><path d="M-5.09 198.7 C-0.71 209.42, 1.88 220.86, 4.35 227.67 M-5.34 198.71 C-2.24 206.96, 0.3 215.07, 6.56 227.91" stroke="#000000" stroke-width="1" fill="none"></path></g><g transform="translate(249.35501949778052 219.67644532797522) rotate(0 3.500876838792749 114.26743650299849)"><path d="M15.43 198.15 C12.31 209.23, 7.4 220.87, 4.35 227.67 M15.18 198.15 C12.5 206.43, 9.26 214.7, 6.56 227.91" stroke="#000000" stroke-width="1" fill="none"></path></g></g><mask></mask><g transform="translate(696 397.57512374207215) rotate(0 110.5 45)"><text x="0" y="32" font-family="Virgil, HanziPen SC, Zhushiti, KaiTi, Segoe UI Emoji" font-size="35.80645161290321px" fill="#c92a2a" text-anchor="start" style="white-space: pre;" direction="ltr">Obcsapi 服务</text><text x="0" y="77" font-family="Virgil, HanziPen SC, Zhushiti, KaiTi, Segoe UI Emoji" font-size="35.80645161290321px" fill="#c92a2a" text-anchor="start" style="white-space: pre;" direction="ltr">可本地存储</text></g><g stroke-linecap="round" transform="translate(1155.242151520137 10) rotate(0 101 344)"><path d="M32 0 M32 0 C79.55 1.2, 130.31 0.36, 170 0 M32 0 C75.72 -1.28, 118.94 -0.46, 170 0 M170 0 C191.4 0.17, 202.2 11.09, 202 32 M170 0 C191.48 -1.68, 201.42 9.69, 202 32 M202 32 C200.61 198.78, 200.66 366.06, 202 656 M202 32 C201.66 241.14, 201.34 449.49, 202 656 M202 656 C202.48 678.94, 191.06 687.65, 170 688 M202 656 C202.62 676.97, 189.93 687.87, 170 688 M170 688 C123.84 686.44, 78.69 688.16, 32 688 M170 688 C142.72 686.02, 115.1 686.98, 32 688 M32 688 C12.62 687.46, -1.46 676.09, 0 656 M32 688 C8.87 688.87, -2.24 679.53, 0 656 M0 656 C-0.92 498.87, -1.43 340.55, 0 32 M0 656 C-1.38 510.38, -1.56 365.09, 0 32 M0 32 C-0.13 9.03, 9.75 0.82, 32 0 M0 32 C0.92 11.66, 10.95 -0.14, 32 0" stroke="#000000" stroke-width="1" fill="none"></path></g><g transform="translate(1169.7421515201372 27) rotate(0 124 346.5)"><text x="0" y="23" font-family="Virgil, HanziPen SC, Zhushiti, KaiTi, Segoe UI Emoji" font-size="25.43589743589743px" fill="#000000" text-anchor="start" style="white-space: pre;" direction="ltr">Alist挂载</text><text x="0" y="56" font-family="Virgil, HanziPen SC, Zhushiti, KaiTi, Segoe UI Emoji" font-size="25.43589743589743px" fill="#000000" text-anchor="start" style="white-space: pre;" direction="ltr">本地存储       </text><text x="0" y="89" font-family="Virgil, HanziPen SC, Zhushiti, KaiTi, Segoe UI Emoji" font-size="25.43589743589743px" fill="#000000" text-anchor="start" style="white-space: pre;" direction="ltr">阿里云盘       </text><text x="0" y="122" font-family="Virgil, HanziPen SC, Zhushiti, KaiTi, Segoe UI Emoji" font-size="25.43589743589743px" fill="#000000" text-anchor="start" style="white-space: pre;" direction="ltr">Onedrive        </text><text x="0" y="155" font-family="Virgil, HanziPen SC, Zhushiti, KaiTi, Segoe UI Emoji" font-size="25.43589743589743px" fill="#000000" text-anchor="start" style="white-space: pre;" direction="ltr">天翼云盘       </text><text x="0" y="188" font-family="Virgil, HanziPen SC, Zhushiti, KaiTi, Segoe UI Emoji" font-size="25.43589743589743px" fill="#000000" text-anchor="start" style="white-space: pre;" direction="ltr">GoogleDrive        </text><text x="0" y="221" font-family="Virgil, HanziPen SC, Zhushiti, KaiTi, Segoe UI Emoji" font-size="25.43589743589743px" fill="#000000" text-anchor="start" style="white-space: pre;" direction="ltr">123pan        </text><text x="0" y="254" font-family="Virgil, HanziPen SC, Zhushiti, KaiTi, Segoe UI Emoji" font-size="25.43589743589743px" fill="#000000" text-anchor="start" style="white-space: pre;" direction="ltr">FTP       </text><text x="0" y="287" font-family="Virgil, HanziPen SC, Zhushiti, KaiTi, Segoe UI Emoji" font-size="25.43589743589743px" fill="#000000" text-anchor="start" style="white-space: pre;" direction="ltr">SFTP        </text><text x="0" y="320" font-family="Virgil, HanziPen SC, Zhushiti, KaiTi, Segoe UI Emoji" font-size="25.43589743589743px" fill="#000000" text-anchor="start" style="white-space: pre;" direction="ltr">PikPak        </text><text x="0" y="353" font-family="Virgil, HanziPen SC, Zhushiti, KaiTi, Segoe UI Emoji" font-size="25.43589743589743px" fill="#000000" text-anchor="start" style="white-space: pre;" direction="ltr">S3        </text><text x="0" y="386" font-family="Virgil, HanziPen SC, Zhushiti, KaiTi, Segoe UI Emoji" font-size="25.43589743589743px" fill="#000000" text-anchor="start" style="white-space: pre;" direction="ltr">USS        </text><text x="0" y="419" font-family="Virgil, HanziPen SC, Zhushiti, KaiTi, Segoe UI Emoji" font-size="25.43589743589743px" fill="#000000" text-anchor="start" style="white-space: pre;" direction="ltr">WebDAV       </text><text x="0" y="452" font-family="Virgil, HanziPen SC, Zhushiti, KaiTi, Segoe UI Emoji" font-size="25.43589743589743px" fill="#000000" text-anchor="start" style="white-space: pre;" direction="ltr">Teambition       </text><text x="0" y="485" font-family="Virgil, HanziPen SC, Zhushiti, KaiTi, Segoe UI Emoji" font-size="25.43589743589743px" fill="#000000" text-anchor="start" style="white-space: pre;" direction="ltr">分秒帧        </text><text x="0" y="518" font-family="Virgil, HanziPen SC, Zhushiti, KaiTi, Segoe UI Emoji" font-size="25.43589743589743px" fill="#000000" text-anchor="start" style="white-space: pre;" direction="ltr">和彩云        </text><text x="0" y="551" font-family="Virgil, HanziPen SC, Zhushiti, KaiTi, Segoe UI Emoji" font-size="25.43589743589743px" fill="#000000" text-anchor="start" style="white-space: pre;" direction="ltr">YandexDisk        </text><text x="0" y="584" font-family="Virgil, HanziPen SC, Zhushiti, KaiTi, Segoe UI Emoji" font-size="25.43589743589743px" fill="#000000" text-anchor="start" style="white-space: pre;" direction="ltr">百度网盘        </text><text x="0" y="617" font-family="Virgil, HanziPen SC, Zhushiti, KaiTi, Segoe UI Emoji" font-size="25.43589743589743px" fill="#000000" text-anchor="start" style="white-space: pre;" direction="ltr">夸克网盘       </text><text x="0" y="650" font-family="Virgil, HanziPen SC, Zhushiti, KaiTi, Segoe UI Emoji" font-size="25.43589743589743px" fill="#000000" text-anchor="start" style="white-space: pre;" direction="ltr"></text><text x="0" y="683" font-family="Virgil, HanziPen SC, Zhushiti, KaiTi, Segoe UI Emoji" font-size="25.43589743589743px" fill="#000000" text-anchor="start" style="white-space: pre;" direction="ltr"></text></g><g mask="url(#mask-kf-cnFbEyotfeB5OugVqf)" stroke-linecap="round"><g transform="translate(1139.242151520137 330.0486945482867) rotate(0 -148.4152833707259 -65.53262620408844)"><path d="M-0.52 -0.76 C-50 -22.94, -247.92 -110.74, -297.19 -132.52 M1.41 1.46 C-48.22 -20.6, -248.59 -108.74, -298.24 -131.23" stroke="#000000" stroke-width="1" fill="none"></path></g><g transform="translate(1139.242151520137 330.0486945482867) rotate(0 -148.4152833707259 -65.53262620408844)"><path d="M-269.58 -129.45 C-277.28 -128.41, -283.66 -131.45, -299.57 -131.82 M-268.78 -128.64 C-277.04 -129.98, -284.3 -129.22, -298.1 -130.44" stroke="#000000" stroke-width="1" fill="none"></path></g><g transform="translate(1139.242151520137 330.0486945482867) rotate(0 -148.4152833707259 -65.53262620408844)"><path d="M-277.93 -110.7 C-283.43 -114.75, -287.53 -122.91, -299.57 -131.82 M-277.13 -109.89 C-283.01 -116.36, -288.02 -120.66, -298.1 -130.44" stroke="#000000" stroke-width="1" fill="none"></path></g></g><mask id="mask-kf-cnFbEyotfeB5OugVqf"><rect x="0" y="0" fill="#fff" width="1536.242151520137" height="562.0973890965734"></rect><rect x="949.742151520137" y="251.52434727414334" fill="#000" width="82" height="25" opacity="1"></rect></mask><g transform="translate(949.742151520137 251.52434727414334) rotate(0 41.08471662927411 12.991721070054894)"><text x="41" y="18" font-family="Virgil, HanziPen SC, Zhushiti, KaiTi, Segoe UI Emoji" font-size="20px" fill="#000000" text-anchor="middle" style="white-space: pre;" direction="ltr">可以提供</text></g><g stroke-linecap="round" transform="translate(655.242151520137 375) rotate(0 151 67)"><path d="M32 0 M32 0 C110.15 0.33, 186.9 -0.19, 270 0 M32 0 C90.28 0.97, 148.07 -0.23, 270 0 M270 0 C292.02 0.45, 302.77 8.86, 302 32 M270 0 C292.14 -2.25, 301.73 10.38, 302 32 M302 32 C301 53.95, 302.82 73.15, 302 102 M302 32 C302.81 57.09, 302.48 82.21, 302 102 M302 102 C302.36 122.48, 289.79 133.57, 270 134 M302 102 C300.25 123.22, 289.29 132.96, 270 134 M270 134 C218.54 133.34, 168.43 134.58, 32 134 M270 134 C200.69 135.37, 130.94 136.06, 32 134 M32 134 C12.5 132.8, 0.62 124.8, 0 102 M32 134 C11.07 132.64, -0.01 124.89, 0 102 M0 102 C-2.49 83.46, -2.57 65.86, 0 32 M0 102 C-0.24 87.15, -0.74 72.21, 0 32 M0 32 C0.54 11.24, 9.28 -0.88, 32 0 M0 32 C1.27 12.47, 11.66 0.29, 32 0" stroke="#000000" stroke-width="1" fill="none"></path></g><g transform="translate(599.242151520137 604) rotate(0 217 37)"><text x="0" y="26" font-family="Virgil, HanziPen SC, Zhushiti, KaiTi, Segoe UI Emoji" font-size="29.600000000000016px" fill="#364fc7" text-anchor="start" style="white-space: pre;" direction="ltr">微信，fv悬浮球，Obcsapi前端，</text><text x="0" y="63" font-family="Virgil, HanziPen SC, Zhushiti, KaiTi, Segoe UI Emoji" font-size="29.600000000000016px" fill="#364fc7" text-anchor="start" style="white-space: pre;" direction="ltr">使用通用API的其他程序 </text></g><g transform="translate(316.242151520137 213) rotate(0 210 25)"><text x="0" y="18" font-family="Virgil, HanziPen SC, Zhushiti, KaiTi, Segoe UI Emoji" font-size="20px" fill="#000000" text-anchor="start" style="white-space: pre;" direction="ltr">通过WebDAV挂载，Ob插件等方式同步</text><text x="0" y="43" font-family="Virgil, HanziPen SC, Zhushiti, KaiTi, Segoe UI Emoji" font-size="20px" fill="#000000" text-anchor="start" style="white-space: pre;" direction="ltr">可以通过服务厂商提供的，如坚果云文件夹同步</text></g><g transform="translate(125.24215152013699 103) rotate(0 108.5 27)"><text x="0" y="38" font-family="Virgil, HanziPen SC, Zhushiti, KaiTi, Segoe UI Emoji" font-size="43.19999999999998px" fill="#000000" text-anchor="start" style="white-space: pre;" direction="ltr">本地文件夹</text></g><g stroke-linecap="round"><g transform="translate(755.242151520137 258) rotate(0 -0.3900149793671517 45.611799624310805)"><path d="M0.84 -0.56 C0.83 14.68, -0.09 75.57, -0.43 90.85 M-0.18 1.77 C-0.35 17.15, -1.82 76.75, -1.6 91.78" stroke="#000000" stroke-width="1" fill="none"></path></g><g transform="translate(755.242151520137 258) rotate(0 -0.3900149793671517 45.611799624310805)"><path d="M-12.57 62.8 C-10.98 69.15, -7.85 79.08, -0.12 90.95 M-10.95 63.81 C-9.86 71.2, -7.38 77.69, -1.58 91.53" stroke="#000000" stroke-width="1" fill="none"></path></g><g transform="translate(755.242151520137 258) rotate(0 -0.3900149793671517 45.611799624310805)"><path d="M7.95 62.96 C3.99 69.41, 1.57 79.3, -0.12 90.95 M9.57 63.97 C5.4 71.39, 2.6 77.83, -1.58 91.53" stroke="#000000" stroke-width="1" fill="none"></path></g></g><mask></mask><g stroke-linecap="round"><g transform="translate(806.2421515201372 353) rotate(0 0.3910408845266602 -48.90512284971771)"><path d="M-1.08 0.56 C-1.25 -15.89, -0.55 -81.89, -0.2 -98.37 M0.56 -0.19 C0.66 -16.5, 1.93 -80.87, 1.88 -97.03" stroke="#000000" stroke-width="1" fill="none"></path></g><g transform="translate(806.2421515201372 353) rotate(0 0.3910408845266602 -48.90512284971771)"><path d="M12.8 -70.73 C7.48 -79.23, 3.91 -88.83, 0.8 -95.83 M10.95 -68.78 C10.32 -76.32, 6.13 -83.42, 1.31 -96.17" stroke="#000000" stroke-width="1" fill="none"></path></g><g transform="translate(806.2421515201372 353) rotate(0 0.3910408845266602 -48.90512284971771)"><path d="M-7.72 -70.94 C-5.46 -79.17, -1.45 -88.7, 0.8 -95.83 M-9.57 -68.99 C-4.58 -76.42, -3.13 -83.47, 1.31 -96.17" stroke="#000000" stroke-width="1" fill="none"></path></g></g><mask></mask><g stroke-linecap="round" transform="translate(565.242151520137 587) rotate(0 262.5 52)"><path d="M26 0 M26 0 C134.53 -1.49, 243.58 -1.23, 499 0 M26 0 C206.25 1.04, 386 1.16, 499 0 M499 0 C514.65 0.06, 526.1 7.99, 525 26 M499 0 C516.18 1, 522.77 7.58, 525 26 M525 26 C526.42 37.46, 526.31 47.36, 525 78 M525 26 C525.9 41.67, 524.63 55.36, 525 78 M525 78 C526.84 93.71, 517.23 104.57, 499 104 M525 78 C523.62 94.45, 516.15 103.63, 499 104 M499 104 C345.09 101.99, 189.32 102.57, 26 104 M499 104 C317.55 105.53, 136.34 105.37, 26 104 M26 104 C7.62 102.93, -0.98 93.36, 0 78 M26 104 C8.29 103.46, -1.9 95.76, 0 78 M0 78 C0.98 62.71, 0.2 46.77, 0 26 M0 78 C-0.21 61.34, 0.68 46.13, 0 26 M0 26 C-0.96 6.7, 8.25 0.84, 26 0 M0 26 C-1.45 10.14, 10.31 -1.63, 26 0" stroke="#000000" stroke-width="1" fill="none"></path></g><g stroke-linecap="round"><g transform="translate(752.242151520137 525) rotate(0 -0.7432068631355264 24.914700190024462)"><path d="M-0.45 -0.47 C-0.85 8.05, -2.67 43.18, -3 51.6 M1.51 -1.77 C1.53 6.36, 0.01 41.02, -0.81 49.79" stroke="#000000" stroke-width="1" fill="none"></path></g><g transform="translate(752.242151520137 525) rotate(0 -0.7432068631355264 24.914700190024462)"><path d="M-8.77 23.63 C-5.11 30.74, -5.97 38.21, 0.58 48.96 M-7.85 24.73 C-5.5 32.61, -2.74 40.49, -1.25 50.25" stroke="#000000" stroke-width="1" fill="none"></path></g><g transform="translate(752.242151520137 525) rotate(0 -0.7432068631355264 24.914700190024462)"><path d="M8.65 24.75 C7.98 31.51, 2.78 38.7, 0.58 48.96 M9.57 25.85 C6.38 33.54, 3.58 41.06, -1.25 50.25" stroke="#000000" stroke-width="1" fill="none"></path></g></g><mask></mask><g stroke-linecap="round"><g transform="translate(803.242151520137 569) rotate(0 1.3016813172772572 -22.356061609592302)"><path d="M0.81 -1.19 C0.87 -8.86, 0.26 -38.22, 0.42 -45.51 M-0.23 0.8 C0.23 -6.76, 2.55 -36.84, 2.83 -44.24" stroke="#000000" stroke-width="1" fill="none"></path></g><g transform="translate(803.242151520137 569) rotate(0 1.3016813172772572 -22.356061609592302)"><path d="M7.26 -23.63 C6.34 -27.91, 5.31 -35.63, 2.74 -44.51 M9.44 -23.45 C7.36 -29.37, 4.69 -35.18, 3.26 -43.46" stroke="#000000" stroke-width="1" fill="none"></path></g><g transform="translate(803.242151520137 569) rotate(0 1.3016813172772572 -22.356061609592302)"><path d="M-8.11 -24.56 C-4.32 -28.65, -0.65 -36.09, 2.74 -44.51 M-5.93 -24.38 C-3.5 -30.03, -1.65 -35.56, 3.26 -43.46" stroke="#000000" stroke-width="1" fill="none"></path></g></g><mask></mask></svg>