<?xml version="1.0" standalone="no"?>
<!DOCTYPE svg PUBLIC "-//W3C//DTD SVG 20010904//EN"
 "http://www.w3.org/TR/2001/REC-SVG-20010904/DTD/svg10.dtd">
<svg version="1.0" xmlns="http://www.w3.org/2000/svg"
 width="192.000000pt" height="192.000000pt" viewBox="0 0 192.000000 192.000000"
 preserveAspectRatio="xMidYMid meet">
<metadata>
Created by potrace 1.14, written by Peter Selinger 2001-2017
</metadata>
<g transform="translate(0.000000,192.000000) scale(0.100000,-0.100000)"
fill="#000000" stroke="none">
<path d="M0 1872 c0 -43 3 -50 26 -61 22 -9 29 -8 51 9 40 31 98 27 133 -10
15 -16 30 -30 33 -30 2 0 10 14 17 31 26 61 148 90 234 54 43 -18 50 -15 64
25 l11 30 -285 0 -284 0 0 -48z"/>
<path d="M1003 1881 c19 -21 38 -53 42 -70 4 -17 13 -31 20 -31 17 0 72 -46
86 -71 6 -13 6 -25 0 -38 -8 -14 -6 -27 5 -50 17 -33 98 -101 121 -101 8 0 31
-9 52 -19 30 -16 41 -17 50 -8 10 9 11 8 6 -4 -6 -17 19 -20 43 -5 22 13 25
-1 6 -26 -10 -13 -44 -47 -77 -76 l-58 -53 -22 33 c-13 18 -31 35 -42 37 -15
3 -14 -1 8 -20 33 -30 59 -107 49 -145 -5 -19 -20 -35 -44 -47 -43 -21 -72
-14 -64 17 7 27 -8 51 -26 43 -10 -3 -19 6 -27 28 -15 43 0 77 42 98 19 9 25
16 15 16 -9 1 -30 -11 -47 -25 -28 -23 -32 -24 -47 -10 -8 9 -23 16 -32 15
-14 0 -14 -2 -2 -6 41 -15 54 -78 21 -107 -15 -13 -20 -14 -24 -4 -4 8 -6 7
-6 -5 -1 -14 -5 -16 -20 -7 -11 5 -31 10 -45 10 -32 0 -34 21 -6 72 16 30 17
36 4 31 -20 -7 -44 -56 -44 -88 0 -16 -6 -25 -16 -25 -8 0 -73 25 -143 54
-172 74 -235 93 -379 115 -101 15 -126 22 -138 39 -8 11 -42 36 -77 55 -126
69 -147 82 -147 94 0 9 7 10 27 2 46 -17 50 6 7 46 -81 75 -74 106 -74 -348
l0 -404 32 4 33 3 -32 -10 c-18 -6 -33 -13 -33 -15 0 -8 70 -34 83 -31 6 1 9
1 5 -1 -5 -3 -8 -8 -8 -12 0 -11 63 -10 78 2 9 7 11 6 6 -7 -6 -17 -16 -20
-48 -16 -10 1 -22 -4 -26 -10 -6 -9 -11 -7 -19 9 -12 22 -71 31 -71 11 0 -5 5
-10 11 -10 8 0 7 -6 -2 -17 -10 -11 -10 -14 -2 -9 8 4 13 2 13 -5 0 -7 6 -4
14 7 8 10 17 17 20 14 9 -9 -10 -31 -30 -34 -18 -3 -19 -14 -22 -149 l-3 -145
39 5 39 5 6 -42 c3 -23 9 -46 14 -51 4 -4 35 -2 68 6 33 7 61 12 63 10 5 -5
-91 -85 -104 -86 -8 -1 -17 -2 -21 -3 -5 -2 -29 -6 -55 -10 -27 -5 -48 -12
-48 -17 0 -8 61 -4 100 7 8 2 4 -5 -10 -17 -72 -61 -91 -81 -88 -90 4 -12 33
10 194 145 103 87 129 104 208 134 50 18 129 60 177 92 l88 58 -91 -121 c-49
-67 -102 -137 -116 -156 -15 -19 -29 -39 -31 -45 -2 -6 -7 -13 -10 -16 -4 -3
-24 -30 -46 -60 -22 -30 -42 -57 -45 -60 -9 -8 -106 -134 -114 -148 -4 -7 -1
-12 7 -12 20 0 99 100 301 380 53 74 103 143 111 152 8 10 26 36 41 58 15 22
29 39 30 37 2 -2 -3 -23 -11 -48 -24 -72 -52 -250 -54 -345 -1 -48 -5 -92 -7
-96 -3 -4 0 -8 6 -8 16 0 -5 -35 -52 -86 l-41 -44 34 0 c26 0 40 7 61 32 l27
33 1 -32 0 -33 103 0 c96 0 103 1 103 20 0 11 -3 20 -7 20 -15 0 -34 125 -34
230 0 87 5 130 19 175 l20 60 8 -60 c19 -145 89 -305 180 -413 22 -26 34 -32
66 -32 35 0 40 4 62 42 22 40 127 197 140 208 3 3 18 23 33 46 15 22 35 49 45
60 17 19 81 96 113 136 14 18 19 19 57 7 23 -7 42 -16 42 -21 0 -8 -48 -79
-145 -211 -55 -77 -155 -243 -155 -259 0 -5 9 -8 19 -8 15 0 31 23 65 92 59
121 233 391 246 383 5 -3 63 -14 130 -25 86 -15 126 -18 133 -11 8 8 8 11 0
11 -22 0 -328 59 -348 66 -14 6 22 14 110 25 72 9 155 24 186 33 l56 17 2 76
c2 67 0 75 -15 69 -9 -3 -64 -19 -123 -35 -58 -16 -131 -38 -161 -49 -30 -11
-91 -23 -135 -26 -123 -11 -341 -73 -322 -93 4 -3 12 -1 19 4 16 12 147 48
153 41 2 -2 -18 -35 -46 -74 -56 -76 -149 -229 -149 -244 0 -44 -156 101 -181
168 -14 38 -11 122 4 122 8 0 22 9 32 20 10 11 28 20 39 20 12 0 49 26 85 60
36 33 67 60 71 60 10 0 50 76 50 94 0 8 10 18 23 20 48 10 177 14 177 5 0 -15
-48 -41 -61 -33 -7 4 -9 3 -6 -3 11 -17 -20 -49 -100 -106 -78 -54 -183 -158
-203 -200 -6 -12 8 0 32 27 100 115 473 350 723 456 44 19 85 38 90 43 17 16
-40 -1 -110 -34 -37 -17 -69 -29 -71 -26 -6 6 123 124 158 145 16 9 28 24 28
34 0 17 -5 16 -52 -8 -76 -38 -255 -141 -273 -156 -9 -7 -36 -32 -61 -55 -49
-45 -67 -50 -216 -60 -55 -4 -68 -2 -68 10 0 8 7 17 15 20 8 4 31 31 51 62 40
60 47 65 209 150 61 32 115 61 120 65 38 28 189 99 198 94 7 -4 -1 7 -17 24
-29 31 -51 37 -26 7 7 -9 11 -17 9 -19 -16 -14 -112 -56 -129 -56 -12 0 -19
-4 -16 -8 6 -10 -245 -147 -286 -157 -24 -6 -26 -4 -23 20 4 40 26 56 117 86
104 35 82 37 -37 4 -49 -14 -96 -25 -102 -25 -25 0 -13 28 18 40 21 9 27 16
20 23 -6 6 -11 32 -11 57 0 54 -6 63 -31 50 -11 -6 -20 -6 -23 -1 -8 12 97
107 201 183 74 54 81 62 70 79 -14 22 -27 24 -47 7 -8 -7 -6 -3 3 9 17 19 17
24 4 50 -28 55 -47 142 -47 217 l0 76 -261 0 -261 0 35 -39z m14 -663 c13 -12
23 -25 23 -30 0 -12 -70 -44 -112 -52 -37 -7 -38 -6 -38 22 0 17 9 37 23 49
41 38 72 41 104 11z m-161 -35 c-12 -42 -7 -91 13 -136 27 -61 20 -100 -15
-91 -29 8 -63 -14 -42 -27 10 -7 5 -16 -19 -39 -18 -17 -33 -35 -33 -41 0 -5
19 -9 42 -9 l42 0 -30 -31 c-25 -27 -34 -30 -67 -26 -43 6 -77 31 -77 57 0 30
40 69 83 82 l42 13 -30 5 c-27 5 -30 10 -33 44 -7 79 18 116 75 116 27 0 33 3
25 13 -5 6 -11 21 -12 32 -5 42 0 55 21 55 15 0 19 -5 15 -17z m299 8 c3 -6
-4 -19 -16 -29 -18 -17 -18 -20 -3 -19 9 1 19 -4 21 -10 8 -22 -24 -25 -61 -8
-27 13 -36 24 -36 41 0 15 6 24 15 24 8 0 15 -8 15 -17 0 -15 3 -14 22 5 25
24 34 27 43 13z m126 -41 c12 -7 19 -21 19 -41 0 -32 -25 -95 -42 -105 -5 -4
-2 8 7 26 20 39 14 96 -12 116 -22 16 -1 19 28 4z m-241 -75 c0 -20 5 -25 24
-25 19 0 25 -6 28 -31 4 -25 1 -32 -19 -40 -16 -6 -32 -5 -45 2 -11 6 -29 9
-39 6 -41 -11 -49 70 -11 100 9 7 27 13 40 13 17 0 22 -6 22 -25z m-104 -72
c-10 -10 -19 5 -10 18 6 11 8 11 12 0 2 -7 1 -15 -2 -18z m99 -43 c8 -13 -25
-13 -45 0 -12 8 -9 10 12 10 15 0 30 -4 33 -10z m60 -4 c-11 -8 -24 -12 -28
-9 -11 7 12 23 32 23 11 0 9 -4 -4 -14z m-195 -66 c10 -18 8 -20 -22 -19 -18
1 -25 3 -15 6 9 2 17 11 17 19 0 20 7 18 20 -6z m-810 -5 c-7 -8 -20 -14 -29
-14 -13 1 -13 2 2 6 9 2 17 9 17 14 0 5 5 9 11 9 8 0 8 -5 -1 -15z m77 -19 c0
-8 -6 -12 -15 -9 -11 5 -11 7 0 14 7 5 13 9 14 9 0 0 1 -6 1 -14z m63 -6 c0
-5 -5 -10 -11 -10 -5 0 -7 5 -4 10 3 6 8 10 11 10 2 0 4 -4 4 -10z m-30 -10
c0 -14 37 -12 43 3 4 9 6 9 6 0 1 -18 -17 -26 -45 -19 -23 6 -34 26 -14 26 6
0 10 -4 10 -10z m744 -6 c21 -8 20 -19 -5 -53 -12 -16 -19 -34 -15 -39 20 -32
-24 -53 -65 -32 -24 14 -27 91 -3 114 16 16 59 21 88 10z m89 -14 c4 -16 0
-20 -19 -20 -13 0 -24 5 -24 10 0 6 7 10 15 10 8 0 15 5 15 10 0 17 7 11 13
-10z m-31 -99 c2 -6 28 -11 58 -13 43 -2 55 -7 58 -21 5 -26 -16 -47 -47 -47
-14 0 -35 -7 -45 -15 -25 -19 -41 -19 -60 1 -18 18 -21 56 -6 85 11 20 36 26
42 10z m-204 -41 c11 -32 10 -33 -3 -16 -8 11 -15 29 -15 40 0 25 4 19 18 -24z
m682 -99 c0 -5 -29 -34 -65 -66 -55 -48 -73 -73 -110 -149 -41 -84 -62 -143
-32 -88 13 22 14 22 30 5 15 -17 14 -22 -16 -67 l-32 -49 -6 32 c-11 55 -22
49 -15 -9 6 -48 4 -59 -17 -84 l-24 -29 -21 45 c-37 75 -31 101 56 244 109
180 132 212 150 217 31 8 102 7 102 -2z m-154 -226 c-3 -9 1 -18 8 -21 16 -6
15 -29 -2 -46 -9 -9 -12 -9 -12 0 0 7 -7 12 -16 12 -8 0 -12 5 -9 11 4 6 14 8
22 4 13 -4 13 -3 4 9 -10 12 -6 46 6 46 3 0 2 -7 -1 -15z m-301 -61 c11 -12
38 -34 60 -50 22 -16 41 -38 42 -49 2 -11 6 -34 9 -51 4 -22 -1 -45 -18 -79
l-24 -47 -32 49 c-32 49 -64 128 -56 136 2 2 -2 21 -9 43 -8 21 -17 57 -21 79
l-7 40 18 -25 c9 -14 26 -35 38 -46z"/>
<path d="M1516 1898 c-22 -83 16 -251 74 -324 l16 -22 51 32 c27 17 98 56 156
86 96 49 107 58 107 82 0 24 -3 27 -22 19 -63 -25 -200 -95 -255 -131 -39 -25
-63 -35 -63 -27 0 22 107 94 228 154 l112 57 0 48 0 48 -199 0 c-198 0 -199 0
-205 -22z"/>
<path d="M1626 1511 c-9 -14 63 -113 76 -105 5 3 7 1 6 -4 -2 -5 14 -27 34
-50 37 -41 57 -55 41 -29 -4 6 11 -3 34 -21 l42 -33 33 22 c32 20 26 21 -30 3
-12 -4 -38 17 -92 73 -42 43 -89 96 -106 117 -21 26 -33 35 -38 27z"/>
<path d="M1905 1230 c3 -5 8 -10 11 -10 2 0 4 5 4 10 0 6 -5 10 -11 10 -5 0
-7 -4 -4 -10z"/>
<path d="M1874 1223 c4 -7 3 -13 -1 -13 -5 0 -18 -7 -29 -15 -17 -15 -16 -15
12 -1 28 13 33 13 49 -2 13 -12 16 -13 13 -3 -2 8 -15 21 -28 30 -14 10 -21
11 -16 4z"/>
<path d="M1618 1193 c6 -2 18 -2 25 0 6 3 1 5 -13 5 -14 0 -19 -2 -12 -5z"/>
<path d="M1578 1183 c7 -3 16 -2 19 1 4 3 -2 6 -13 5 -11 0 -14 -3 -6 -6z"/>
<path d="M1323 764 c4 -4 1 -14 -6 -22 -10 -13 -9 -14 11 -3 27 14 27 17 5 25
-10 4 -14 4 -10 0z"/>
<path d="M1825 339 c-49 -34 -101 -65 -114 -70 -13 -5 -22 -12 -19 -14 7 -7
201 64 217 80 13 13 13 15 1 15 -8 -1 -26 -7 -40 -15 -47 -27 -45 -15 3 15 26
17 47 35 47 40 0 14 5 17 -95 -51z"/>
<path d="M1841 274 c-55 -36 -70 -49 -57 -54 16 -5 15 -8 -5 -35 -13 -15 -38
-44 -56 -64 -18 -20 -47 -55 -63 -78 l-30 -42 30 1 c26 1 35 9 57 47 90 158
106 179 151 192 46 13 56 24 50 59 -3 20 -8 18 -77 -26z"/>
<path d="M1902 180 c-6 -14 -24 -58 -41 -99 -17 -41 -29 -76 -26 -79 7 -8 9
-5 49 90 21 48 36 93 33 100 -3 8 -9 3 -15 -12z"/>
<path d="M1886 53 c-14 -29 -23 -53 -18 -53 12 0 54 79 49 93 -2 6 -16 -12
-31 -40z"/>
</g>
</svg>
